<?xml version="1.0" encoding="UTF-8" standalone="no"?>
<!DOCTYPE svg PUBLIC "-//W3C//DTD SVG 1.1//EN" "http://www.w3.org/Graphics/SVG/1.1/DTD/svg11.dtd">
<svg width="100%" height="100%" viewBox="0 0 256 256" version="1.1" xmlns="http://www.w3.org/2000/svg" xmlns:xlink="http://www.w3.org/1999/xlink" xml:space="preserve" xmlns:serif="http://www.serif.com/" style="fill-rule:evenodd;clip-rule:evenodd;stroke-linecap:round;stroke-linejoin:round;stroke-miterlimit:1.5;">
    <g transform="matrix(1,0,0,1,-1970.524748,-1263.341915)">
        <path d="M2016.523,1392.49C2016.523,1392.49 2020.86,1366.086 2053.684,1343.78C2101.489,1311.293 2175.067,1344.079 2197.308,1394.617C2213.474,1431.351 2213.098,1453.745 2204.69,1470.56C2196.283,1487.375 2179.068,1496.983 2161.052,1495.782C2143.036,1494.581 2062.798,1477.89 2036.975,1469.082C2024.214,1464.729 2006.114,1442.935 2006.114,1442.935L2016.523,1392.49Z" style="fill:rgb(215,163,105);stroke:rgb(125,82,33);stroke-width:2.92px;"/>
    </g>
    <g transform="matrix(1.004883,0,0,1.004883,-240.448478,-42.366583)">
        <path d="M408.661,132.6C413.327,115.963 424.032,117.622 427.549,120.442C433.439,125.166 434.683,121.049 437.786,118.975C440.476,117.178 446.379,115.734 449.526,116.349C467.72,119.902 463.653,138.8 463.76,140.481C464.04,144.874 477.547,146.311 479.171,159.554C480.128,167.365 477.482,170.365 475.663,173.583C473.655,177.133 478.548,178.122 481.289,179.83C490.709,185.699 485.883,197.896 482.183,202.248C476.824,208.553 485.968,208.217 486.274,216.513C486.684,227.594 475.645,229.596 475.591,229.633C471.411,232.418 479.143,243.405 460.461,244.108C454.838,244.32 456.76,251.201 452.375,256.393C442.306,268.318 430.754,254.074 428.386,252.684C425.685,251.099 425.529,251.593 422.71,250.101C415.054,246.048 413.965,237.947 408.46,236.68C399.307,234.574 397.652,236.614 390.371,226.591C388.391,223.865 387.816,224.707 384.51,225.545C379.996,226.689 378.287,223.542 375.477,224.434C360.071,229.325 359.693,214.981 353.506,215.542C349.25,215.928 349.422,217.108 340.496,217.36C325.537,217.782 327.076,209.797 323.431,208.739C319.438,207.581 319.383,207.992 315.427,206.777C307.217,204.256 289.396,219.68 281.588,199.457C280.835,197.507 272.115,196.679 269.458,190.521C266.589,183.87 269.699,180.615 270.565,178.52C271.618,175.972 265.442,171.649 265.961,165.529C266.547,158.611 273.08,155.571 274.555,154.562C278.664,151.751 264.978,142.551 279.127,132.048C284.247,128.248 279.345,124.278 282.654,117.583C288.424,105.912 301.293,111.13 302.305,110.242C306.777,106.321 306.738,106.102 312.547,104.607C314.929,103.994 315.461,90.514 326.443,88.233C337.773,85.881 344.779,96.415 346.663,98.31C349.046,100.706 349.343,98.73 352.432,97.355C364.767,91.866 368.875,105.125 370.668,106.28C374.952,109.041 375.048,109.026 377.46,113.528C378.374,115.233 386.975,112.002 390.656,118.405C392.874,122.264 392.154,123.385 396.536,124.304C405.982,126.284 406.505,133.048 406.749,133.298C406.947,133.501 407.355,132.817 407.553,133.02C407.931,133.203 407.771,133.945 408.148,134.128C408.264,134.184 408.184,134.02 408.661,132.6Z" style="fill:rgb(111,140,65);"/>
        <g>
            <g>
                <path d="M388.475,189.546C382.468,169.551 396.417,169.401 400.386,165.383C400.453,165.315 406.373,157.62 412.517,157.761C420.06,157.935 418.642,168.014 425.613,165.784C440.274,161.095 443.765,168.266 438.751,177.632C434.766,185.078 442.046,181.91 445.217,184.829C447.335,186.779 446.272,187.642 448.594,189.379C450.63,190.903 456.07,192.511 455.307,200.461C454.667,207.119 447.637,208.077 446.885,211.563C446.133,215.051 447.33,215.816 444.461,217.445C440.697,219.583 435.475,218.759 439.409,220.6C442.016,221.82 448.457,220.327 449.365,215.476C450.759,208.035 460.683,207.274 458.041,195.608C456.845,190.324 452.123,189.644 450.019,185.772C446.999,180.214 441.5,180.885 442.145,178.435C442.263,177.985 445.66,172.512 443.003,166.725C438.931,157.858 424.248,163.019 423.387,162.701C419.235,161.172 423.021,156.733 423.351,156.346C430.532,147.927 426.816,136.205 413.498,135.602C406.984,135.308 418.746,118.074 425.33,122.897C430.17,126.442 430.9,128.048 436.797,123.92C438.149,122.973 449.522,115.011 457.416,124.574C464.235,132.837 456.943,142.302 463.64,146.251C467.946,148.79 475.049,150.763 476.061,163.5C476.562,169.801 466.065,175.959 474.644,180.222C478.821,182.297 485.124,183.243 482.139,195.345C480.588,201.634 472.228,202.388 479.035,209.945C485.494,217.115 481.491,223.664 478.255,225C473.325,227.037 471.223,226.068 470.677,233.506C469.858,244.661 456.154,235.794 452.649,246.54C445.399,268.771 436.238,252.184 429.267,248.867C422.233,245.52 421.677,246.094 417.175,239.756C414.938,236.607 412.385,235.779 415.772,233.957C420.996,231.146 432.457,240.281 432.043,234.56C431.972,233.583 431.618,233.674 420.642,230.103C415.388,228.394 412.898,233.697 408.412,232.885C394.858,230.433 396.125,227.828 392.468,223.53C387.715,217.943 379.44,226.799 376.347,217.537C375.429,214.789 375.185,200.263 402.758,185.825C408.77,182.677 401.76,183.691 401.582,183.758C395.231,186.16 395.679,186.943 389.539,189.977L388.475,189.546Z" style="fill:rgb(148,190,82);"/>
                <path d="M351.346,187.493L351.549,188.548C346.174,188.645 345.24,189.523 344.84,189.897C336.699,197.537 353.522,210.359 353.556,211.495C353.612,213.317 340.626,213.947 339.484,214.002C324.092,214.75 327.018,193.777 311.548,189.317C311.335,189.256 302.82,188.961 310.356,191.807C317.019,194.323 321.85,202.498 321.508,203.501C321.129,204.61 316.01,203.405 315.545,203.296C307.312,201.357 289.296,214.372 285.25,198.568C282.96,189.624 296.16,191.16 292.151,183.708C287.643,175.328 298.567,174.719 299.498,174.667C308.294,174.176 298.384,164.415 298.242,157.495C297.889,140.251 317.412,148.049 319.238,146.25C320.635,144.874 319.804,144.634 319.437,140.499C319.16,137.382 323.998,127.424 334.33,132.78C339.866,135.649 337.36,130.342 340.34,125.389C342.935,121.076 349.642,122.479 350.463,122.651C354.531,123.502 355.336,119.023 356.834,117.952C365.233,111.947 368.432,124.81 373.39,123.109C375.522,122.377 382.852,109.704 389.102,123.745C391.706,129.594 394.128,126.188 399.36,128.861C406.811,132.669 402.196,140.605 410.413,139.167C429.659,135.799 423.455,159.039 417.618,156.247C404.959,150.193 402.209,162.935 393.585,165.809C382.77,169.414 383.071,183.211 385.698,189.403C387.784,194.316 384.433,193.645 377.987,201.902C367.972,214.731 375.961,220.562 372.609,221.765C364.334,224.735 361.092,214.481 350.038,202.997C341.796,194.435 346.896,190.336 351.611,192.325C362.486,196.91 344.668,167.784 343.183,165.748C341.082,162.867 339.499,164.866 340.419,166.533C346.16,176.925 346.236,176.832 351.346,187.493Z" style="fill:rgb(148,190,82);"/>
                <path d="M318.377,100.479C319.119,98.492 318.969,98.477 319.627,97.579C331.256,81.694 344.208,100.827 344.686,101.337C349.514,106.494 358.309,93.52 364.423,103.546C370.758,113.934 376.401,111.919 374.186,117.343C371.212,124.625 369.499,111.662 359.493,113.443C354.41,114.348 354.536,117.765 351.47,118.753C350.702,119 349.736,119.095 348.437,118.96C341.441,118.235 337.876,122.706 336.965,124.739C335.472,128.072 335.456,129.16 331.544,128.299C324.884,126.834 315.812,131.79 316.541,141.498C316.786,144.762 313.879,143.04 313.417,142.968C311.755,142.711 297.684,140.533 295.215,153.485C293.494,162.516 299.106,168.399 299.271,168.651C300.86,171.098 299.417,171.452 296.502,171.556C292.58,171.696 285.623,176.531 288.332,183.566C289.772,187.305 288.299,187.227 285.867,188.985C283.156,190.944 282.993,196.2 278.657,194.14C268.005,189.08 272.198,183.413 274.017,179.296C275.71,175.466 270.657,172.353 269.718,168.439C267.539,159.356 277.487,159.322 279.25,154.412C280.278,151.548 271.467,142.092 279.608,135.641C284.433,131.818 285.016,131.611 284.624,125.496C284.017,116.009 291.207,113.098 293.534,112.924C302.649,112.241 301.28,118.939 301.693,119.251C304.777,121.576 302.767,110.29 310.461,108.345C315.477,107.076 316.847,107.585 318.377,100.479Z" style="fill:rgb(147,191,81);"/>
                <path d="M462.359,214.504C471.343,193.602 454.514,189.264 455.159,160.445C455.257,156.079 457.107,157.394 457.196,157.655C458.045,160.144 457.042,172.771 463.561,187.471C464.464,189.506 472.762,208.216 464.373,215.282C464.079,215.53 462.636,216.179 462.537,216.16C462.406,216.135 462.524,216.043 462.359,214.504Z" style="fill:rgb(125,147,63);"/>
                <path d="M451.664,221.631C451.974,221.313 455.252,217.95 455.654,217.781C456.147,217.573 458.481,218.059 456.956,219.684C453.933,222.906 452.361,226.356 451.758,226.951C451.455,227.25 447.843,227.124 451.664,221.631Z" style="fill:rgb(118,149,54);"/>
            </g>
            <path d="M408.661,132.6C408.184,134.02 408.264,134.184 408.148,134.128C407.771,133.945 407.931,133.203 407.553,133.02L408.661,132.6Z" style="fill:rgb(169,191,129);"/>
        </g>
    </g>
    <g transform="matrix(0.961372,0.275254,-0.275254,0.961372,-1339.44135,-1669.347567)">
        <g transform="matrix(0.566658,0,0,0.566658,1459.928209,810.876595)">
            <path d="M989.364,946.523C989.475,947.7 992.182,958.481 987.272,973.422C977.627,1002.779 928.501,1015.699 911.797,970.367C910.876,967.868 909.743,969.221 878.54,971.96C845.613,974.852 841.219,978.958 838.438,974.543C837.148,972.496 835.61,968.751 834.252,970.152C831.48,973.012 836.546,978.389 825.491,980.45C785.947,987.82 785.93,982.806 785.699,982.402C783.815,979.105 786.29,972.568 782.686,952.471C781.401,945.302 792.622,943.344 785.63,941.149C778.745,938.988 782.778,935.95 778.218,904.541C776.212,890.724 776.182,888.984 778.862,886.94C779.643,886.344 780.488,885.835 781.271,885.242C781.444,885.11 783.956,883.207 781.48,882.537C780.098,882.164 775.842,882.31 774.849,878.411C774.129,875.583 768.789,851.627 769.903,849.712C772.886,844.588 775.054,850.206 798.481,847.351C805.092,846.546 806.554,844.555 809.84,850.293C813.701,857.032 812.536,846.077 816.399,844.29C821.253,842.045 845.71,844.264 891.508,835.545C897.886,834.331 898.562,834.254 902.678,839.339C906.763,844.386 904.177,833.851 910.537,832.749C944.79,826.814 952.48,817.632 953.796,832.477C956.08,858.261 955.752,858.671 954.087,860.128C952.004,861.95 950.484,861.665 951.632,863.437C952.951,865.472 956.951,861.704 958.159,868.557C962.175,891.331 961.631,892.919 963.461,892.264C965.301,891.606 971.234,887.054 980.455,890.603C990.73,894.557 999.987,915.201 978.639,921.912C974.782,923.124 978.036,925.092 982.407,930.572C986.875,936.173 989.039,945.169 989.364,946.523Z" style="fill:rgb(138,107,76);"/>
        </g>
        <g transform="matrix(0.566658,0,0,0.566658,1459.928209,810.876595)">
            <path d="M921.671,926.659C911.439,939.623 910.207,943.449 910.651,962.501C910.7,964.598 908.705,964.738 902.52,965.642C881.178,968.761 880.903,966.115 849.52,971.613C848.842,971.732 841.862,972.955 840.927,972.073C840.47,971.643 835.273,958.748 830.729,969.595C828.949,973.842 830.002,975.269 825.445,976.227C810.256,979.421 789.978,982.105 788.916,979.345C787.693,976.166 790.058,971.725 786.428,952.513C785.534,947.779 795.793,944.221 791.971,940.033C789.401,937.216 785.32,940.256 784.932,933.499C783.747,912.819 783.051,912.976 780.568,892.496C780.043,888.167 793.241,883.301 783.44,879.667C779.739,878.295 778.402,879.346 777.716,875.457C773.63,852.298 773.472,851.836 774.438,851.408C776.564,850.465 776.757,853.226 803.494,850.384C808.354,849.867 808.239,859.66 814.487,856.481C816.655,855.378 815.752,848.011 819.486,847.43C833.85,845.196 853.623,847.845 891.56,839.756C897.295,838.533 897.647,839.123 899.876,842.22C908.075,853.613 908.22,837.964 911.336,837.014C913.956,836.216 914.178,837.193 944.553,828.692C952.497,826.469 948.932,832.387 951.461,854.504C952.128,860.341 938.627,866.52 949.512,867.303C952.849,867.543 954.283,866.138 954.67,869.464C954.897,871.411 956.471,884.915 959.42,893.506C960.401,896.365 952.753,904.142 958.545,912.472C965.146,921.968 945.608,903.713 921.671,926.659Z" style="fill:rgb(226,196,151);"/>
        </g>
        <g transform="matrix(0.566658,0,0,0.566658,1459.928209,810.876595)">
            <path d="M948.411,988.633C900.706,983.29 906.3,924.216 944.453,918.216C980.62,912.529 1000.833,956.643 974.262,980.175C967.264,986.373 953.666,988.599 951.76,988.911C951.956,988.477 954.142,983.634 952.966,983.079C952.713,982.96 952.803,983.701 949.524,983.649C945.312,983.583 948.394,986.996 948.5,987.327C948.633,987.742 948.278,988.217 948.411,988.633Z" style="fill:rgb(209,165,115);"/>
        </g>
        <g transform="matrix(0.566658,0,0,0.566658,1459.928209,810.876595)">
            <path d="M964.495,929.54C982.842,939.141 979.092,960.344 974.754,966.527C969.409,975.142 965.578,977.147 954.617,980.712C951.951,980.578 946.997,980.81 946.336,980.841C939.987,978.902 938.937,978.824 939.743,976.576C940.362,974.851 940.442,974.405 938.659,973.874C937.954,974.651 937.95,974.577 937.317,975.354C933.037,980.605 915.642,958.433 924.386,943.326C925.587,943.728 925.537,943.662 926.549,944.408C927.123,944.833 932.782,945.839 928.148,941.989C931.306,939.368 930.629,938.684 936.558,934.603C937.709,933.81 951.848,927.462 960.162,932.687C961.643,933.519 962.029,933.521 962.957,931.747C963.619,930.481 963.651,930.607 964.495,929.54Z" style="fill:rgb(244,229,207);"/>
        </g>
        <g transform="matrix(0.566658,0,0,0.566658,1459.928209,810.876595)">
            <path d="M817.756,899.721C812.054,891.722 811.295,902.15 805.5,903.482C799.878,904.775 793.623,899.448 799.621,887.543C804.34,878.177 792.125,873.22 798.295,869.084C800.296,867.743 802.078,869.121 809.493,866.481C814.523,864.689 818.495,874.958 826.551,869.656C828.274,868.522 831.443,867.916 833.151,866.195C837.174,862.144 838.056,860.348 844.475,861.559C849.019,862.417 853.198,858.614 854.275,863.593C855.665,870.016 858.827,876.517 853.284,878.033C852.531,878.239 842.928,873.147 839.173,885.36C837.734,890.042 843.152,891.593 842.085,896.479C841.202,900.525 840.506,904.568 835.491,903.547C833.722,903.187 824.715,894.455 820.097,897.092C818.958,897.742 819.508,898.014 819.526,899.279L817.756,899.721Z" style="fill:rgb(194,158,115);"/>
        </g>
        <g transform="matrix(0.566658,0,0,0.566658,1459.928209,810.876595)">
            <path d="M935.685,872.392C935.016,873.7 935.01,873.687 934.962,873.805C934.737,874.354 935.016,874.343 934.79,874.896C929.439,882.818 926.84,875.938 923.524,875.935C922.836,875.934 922.174,876.217 921.489,876.28C921.272,876.3 915.909,874.256 911.405,876.273C910.801,876.544 904.372,879.423 903.133,876.664C901.471,872.962 905.098,871.467 901.621,869.301C899.449,867.948 898.241,858.001 906.507,858.192C918.503,858.468 917.293,846.609 926.391,850.794C930.1,852.5 930.046,855.734 931.471,856.541C931.69,856.665 936.368,858.078 936.639,862.5C936.956,867.658 933.664,867.664 935.685,872.392Z" style="fill:rgb(145,111,71);"/>
        </g>
        <g transform="matrix(0.566658,0,0,0.566658,1459.928209,810.876595)">
            <path d="M961.224,927.807C959.74,927.284 950.261,923.944 941.59,926.772C935.679,928.701 928.358,933.973 925.157,940.485C924.543,941.874 924.522,941.799 924.386,943.326C915.642,958.433 933.037,980.605 937.317,975.354C937.95,974.577 937.954,974.651 938.659,973.874C940.442,974.405 940.362,974.851 939.743,976.576C938.937,978.824 939.987,978.902 946.336,980.841C946.323,981.03 946.718,981.085 946.705,981.274C946.427,985.338 944.499,983.372 940.583,982.24C910.107,973.431 912.771,926.224 947.497,922.466C975.103,919.478 995.467,955.716 969.299,977.25C965.519,980.36 960.28,982.019 959.435,982.287C956.004,983.373 954.026,984.243 954.617,980.712C965.578,977.147 969.409,975.142 974.754,966.527C979.092,960.344 982.842,939.141 964.495,929.54C962.891,928.48 962.946,928.562 961.224,927.807Z" style="fill:rgb(125,88,49);"/>
        </g>
        <g transform="matrix(0.566658,0,0,0.566658,1459.928209,810.876595)">
            <path d="M817.756,899.721C815.192,900.883 814.608,898.636 812.51,900.512C811.592,901.332 810.076,904.566 807.514,905.533C794.622,910.398 792.695,894.08 796.674,887.631C801.053,880.536 794.497,876.561 793.847,873.417C792.147,865.189 806.572,864.757 806.573,864.756C811.41,863.17 811.727,863.174 815.883,866.006C823.146,870.957 827.031,866.416 827.413,866.267C836.519,862.716 835.022,857.007 844.53,859.101C847.584,859.774 855.05,855.618 856.662,862.461C859.276,873.56 859.438,873.555 859.281,874.466C857.455,885.037 847.165,876.732 843.853,881.703C839.805,887.777 842.969,889.754 843.451,890.53C847.795,897.529 840.814,911.982 831.535,904.454C826.273,900.184 826.209,900.095 819.526,899.279C819.508,898.014 818.958,897.742 820.097,897.092C824.715,894.455 833.722,903.187 835.491,903.547C840.506,904.568 841.202,900.525 842.085,896.479C843.152,891.593 837.734,890.042 839.173,885.36C842.928,873.147 852.531,878.239 853.284,878.033C858.827,876.517 855.665,870.016 854.275,863.593C853.198,858.614 849.019,862.417 844.475,861.559C838.056,860.348 837.174,862.144 833.151,866.195C831.443,867.916 828.274,868.522 826.551,869.656C818.495,874.958 814.523,864.689 809.493,866.481C802.078,869.121 800.296,867.743 798.295,869.084C792.125,873.22 804.34,878.177 799.621,887.543C793.623,899.448 799.878,904.775 805.5,903.482C811.295,902.15 812.054,891.722 817.756,899.721Z" style="fill:rgb(147,112,71);"/>
        </g>
        <g transform="matrix(0.566658,0,0,0.566658,1459.928209,810.876595)">
            <path d="M869.267,927.403C870.076,924.948 870.398,925.01 870.147,923.565C868.511,914.159 877.046,915.743 878.426,916.615C881.711,918.692 881.68,919.028 885.51,918.748C891.427,918.315 904.911,940.246 886.386,935.929C883.595,935.279 877.456,941.975 871.549,937.438C866.823,933.809 867.13,932.897 869.267,927.403Z" style="fill:rgb(148,114,74);"/>
        </g>
        <g transform="matrix(0.566658,0,0,0.566658,1459.928209,810.876595)">
            <path d="M902.775,866.065C902.782,861.993 902.467,860.621 906.509,860.703C910.737,860.789 910.691,860.489 914.517,858.78C919.389,856.603 917.296,852.984 922.502,852.659C926.828,852.39 926.363,853.734 928.509,857.494C929.163,858.638 932.477,859.844 933.213,860.674C934.597,862.235 932.651,867.89 932.447,868.483C931.468,871.331 934.374,878.882 926.614,874.333C923.393,872.445 923.089,873.775 919.453,872.817C913.562,871.266 906.488,876.233 905.648,875.297C904.042,873.507 909.497,871.046 902.775,866.065Z" style="fill:rgb(192,155,113);"/>
        </g>
        <g transform="matrix(0.566658,0,0,0.566658,1459.928209,810.876595)">
            <path d="M956.713,956.77C955.738,958.153 951.827,963.7 941.403,971.352C939.076,971.214 939.133,971.303 938.936,971.287C938.559,969.819 937.767,966.734 941.791,952.559C943.769,945.59 963.931,926.915 961.448,940.49C959.341,952.008 957.368,955.583 956.713,956.77Z" style="fill:rgb(134,103,93);"/>
        </g>
        <g transform="matrix(0.566658,0,0,0.566658,1459.928209,810.876595)">
            <path d="M818.174,934.749C818.281,935.431 819.514,943.26 819.849,943.221C821.484,943.029 824.32,937.43 824.608,936.864C825.536,936.095 828.224,933.499 828.142,935.534C828.132,935.783 828.075,935.755 827.241,938.523C826.304,939.443 826.295,939.362 825.461,940.43C823.868,942.536 823.836,942.438 823.716,942.628C821.783,945.683 827.176,943.568 827.461,943.456C828.201,943.362 828.94,943.267 829.679,943.173C834.572,944.912 840.169,942.742 836.347,946.316C835.86,946.772 830.906,948.197 830.425,948.335C829.43,948.615 828.435,948.896 827.44,949.176C826.185,949.65 824.93,950.125 823.674,950.6C823.303,951.359 822.931,952.118 822.56,952.877C822.43,952.935 821.006,952.289 821.336,954.509C821.336,954.509 821.947,958.334 822,958.667L822.145,960.622C822.253,961.308 823.393,968.512 822.328,969.313C820.9,970.387 820.142,968.106 817.786,958.483C817.697,957.966 817.682,958 816.426,953.651C814.598,955.933 814.797,955.963 813.29,958.548C813.081,959.333 812.872,960.118 812.664,960.902C809.813,961.926 809.845,961.977 809.585,962.008C809.385,962.032 808.639,961.989 809.664,959.49C809.941,958.82 810.218,958.151 810.494,957.482C812.115,956.134 812.14,956.199 813.219,954.332C814.969,951.305 809.316,952.524 806.508,952.572L805.408,952.813C789.889,951.382 812.277,946.563 813.133,946.257C814.048,944.612 814.203,944.656 813.958,942.828C814.264,940.818 814.027,940.841 813.423,935.499C813.4,934.527 812.614,927.256 814.459,927.179C816.486,927.094 816.044,930.912 818.174,934.749Z" style="fill:rgb(132,91,54);"/>
        </g>
        <g transform="matrix(0.566658,0,0,0.566658,1459.928209,810.876595)">
            <path d="M892.479,927.584C892.556,927.954 893.372,931.851 893.279,932.24C892.296,936.315 887.827,931.048 881.521,934.536C872.37,939.599 869.748,932.472 871.238,929.366C873.878,923.862 871.712,923.504 872.537,920.509C873.645,916.491 878.954,920.362 879.397,920.685C882.712,923.101 886.099,920.673 887.25,921.958C889.821,924.829 889.488,925.065 892.479,927.584Z" style="fill:rgb(193,155,116);"/>
        </g>
        <g transform="matrix(0.566658,0,0,0.566658,1459.928209,810.876595)">
            <path d="M919.66,977.402C920.868,978.999 927.986,988.403 940.584,991.15C966.596,996.821 979.442,979.1 979.757,978.761C981.55,976.83 981.365,976.558 981.59,976.593C983.71,976.927 980.086,981.296 979.813,981.625C976.438,985.694 964.775,1000.646 940.57,995.243C929.314,992.73 918.292,979.821 918.319,978.56C918.331,977.97 919.647,977.992 919.66,977.402Z" style="fill:rgb(174,126,80);"/>
        </g>
        <g transform="matrix(0.566658,0,0,0.566658,1459.928209,810.876595)">
            <path d="M961.224,927.807C960.764,929.561 960.237,932.295 960.162,932.687C951.848,927.462 937.709,933.81 936.558,934.603C930.629,938.684 931.306,939.368 928.148,941.989C927.151,941.488 926.154,940.987 925.157,940.485C928.358,933.973 935.679,928.701 941.59,926.772C950.261,923.944 959.74,927.284 961.224,927.807Z" style="fill:rgb(215,187,159);"/>
        </g>
        <g transform="matrix(0.566658,0,0,0.566658,1459.928209,810.876595)">
            <path d="M969.598,909.197C964.958,907.908 964.273,906.769 966.425,902.461C967.486,900.336 970.692,898.025 974.512,898.37C987.036,899.501 980.991,918.229 975.732,913.241C973.012,910.66 972.956,910.775 969.598,909.197Z" style="fill:rgb(148,190,82);"/>
        </g>
        <g transform="matrix(0.566658,0,0,0.566658,1459.928209,810.876595)">
            <path d="M964.381,895.343C965.726,894.497 975.916,888.085 984.19,896.797C995.154,908.343 980.077,922.219 977.251,918.689C975.644,916.681 977.865,917.317 980.144,916.072C991.905,909.647 980.437,888.739 967.758,896.89C960.418,901.608 962.994,909.533 962.997,909.637C963.032,910.937 961.288,912.343 960.204,909.647C957.112,901.961 963.5,896.146 964.381,895.343Z" style="fill:rgb(201,161,116);"/>
        </g>
        <g transform="matrix(0.566658,0,0,0.566658,1459.928209,810.876595)">
            <path d="M876.893,874.468C875.592,883.131 859.602,880.062 867.666,871.653C868.011,871.293 870.414,868.787 873.502,869.49C875.923,870.042 876.79,873.997 876.893,874.468Z" style="fill:rgb(133,97,57);"/>
        </g>
        <g transform="matrix(0.566658,0,0,0.566658,1459.928209,810.876595)">
            <path d="M824.495,904.507C824.042,906.31 825.484,907.987 823.828,907.163C823.533,907.015 818.824,901.982 817.313,906.458C816.565,908.672 817.626,912.093 820.57,910.631C824.472,908.693 824.815,909.279 827.943,906.147C828.094,906.53 829.426,909.906 826.256,911.01C820.733,912.932 821.004,913.433 820.519,913.562C811.475,915.965 814.005,895.64 824.495,904.507Z" style="fill:rgb(141,104,64);"/>
        </g>
        <g transform="matrix(0.566658,0,0,0.566658,1459.928209,810.876595)">
            <path d="M951.558,944.315C951.792,945.378 952.026,946.442 952.26,947.506C951.918,948.625 951.695,948.623 952.33,949.59C953.099,950.706 954.526,953.126 954.71,953.437C948.903,958.865 947.852,956.05 945.532,953.514C948.621,946.075 950.804,944.767 951.558,944.315Z" style="fill:rgb(223,207,196);"/>
        </g>
        <g transform="matrix(0.566658,0,0,0.566658,1459.928209,810.876595)">
            <path d="M965.547,912.607C966.481,912.42 967.464,911.518 970.615,913.293C973.861,915.122 973.915,917.052 973.927,917.479C974.076,922.745 971.224,919.729 966.389,917.8C965.809,917.569 965.206,917.399 964.632,917.154C961.543,915.84 962.756,914.534 965.547,912.607Z" style="fill:rgb(206,163,113);"/>
        </g>
        <g transform="matrix(0.566658,0,0,0.566658,1459.928209,810.876595)">
            <path d="M944.127,955.114C946.731,959.616 948.271,957.744 949.698,959.265C950.775,960.413 943.238,966.557 942.47,966.556C941.21,966.554 942.86,961.23 942.816,960.608C942.607,957.677 942.794,957.729 944.127,955.114Z" style="fill:rgb(179,198,199);"/>
        </g>
        <g transform="matrix(0.566658,0,0,0.566658,1459.928209,810.876595)">
            <path d="M824.495,904.507C826.35,905.138 826.42,904.913 827.943,906.147C824.815,909.279 824.472,908.693 820.57,910.631C817.626,912.093 816.565,908.672 817.313,906.458C818.824,901.982 823.533,907.015 823.828,907.163C825.484,907.987 824.042,906.31 824.495,904.507Z" style="fill:rgb(184,146,106);"/>
        </g>
        <g transform="matrix(0.566658,0,0,0.566658,1459.928209,810.876595)">
            <path d="M818.174,934.749C823.173,935.181 822.928,935.916 824.608,936.864C824.32,937.43 821.484,943.029 819.849,943.221C819.514,943.26 818.281,935.431 818.174,934.749Z" style="fill:rgb(215,181,142);"/>
        </g>
        <g transform="matrix(0.566658,0,0,0.566658,1459.928209,810.876595)">
            <path d="M823.674,950.6C825.316,951.867 824.988,952.332 828.595,953.811C829.396,953.688 830.198,953.565 830.999,953.442C830.766,955.499 831.105,955.431 831.443,957.474C831.072,957.497 830.93,958.131 830.559,958.154C830.559,958.154 828.662,957.52 828.497,957.464C827.792,956.827 827.087,956.19 826.382,955.553C826.022,955.315 825.694,955.031 825.334,954.793C823.883,953.837 823.968,953.844 822.56,952.877C822.931,952.118 823.303,951.359 823.674,950.6Z" style="fill:rgb(146,111,73);"/>
        </g>
        <g transform="matrix(0.566658,0,0,0.566658,1459.928209,810.876595)">
            <path d="M948.411,988.633C948.278,988.217 948.633,987.742 948.5,987.327C948.394,986.996 945.312,983.583 949.524,983.649C952.803,983.701 952.713,982.96 952.966,983.079C954.142,983.634 951.956,988.477 951.76,988.911C950.039,989.249 950.119,988.989 948.411,988.633Z" style="fill:rgb(232,204,171);"/>
        </g>
        <g transform="matrix(0.566658,0,0,0.566658,1459.928209,810.876595)">
            <path d="M888.915,886.572C888.845,886.913 887.669,892.67 886.004,889.811C885.71,889.306 885.686,889.264 886.66,882.543C886.948,880.558 889.302,880.829 889.235,883.508C889.229,883.755 889.212,883.735 888.915,886.572Z" style="fill:rgb(138,105,62);"/>
        </g>
        <g transform="matrix(0.566658,0,0,0.566658,1459.928209,810.876595)">
            <path d="M806.474,939.418L807.459,939.351C807.776,939.518 808.195,938.966 808.512,939.133C808.634,939.196 808.592,939.232 809.584,940.466C809.871,940.702 812.77,943.084 813.313,943.238C813.558,943.308 813.713,942.758 813.958,942.828C814.203,944.656 814.048,944.612 813.133,946.257C805.873,940.712 805.882,940.786 805.7,940.476L806.474,939.418Z" style="fill:rgb(149,115,78);"/>
        </g>
        <g transform="matrix(0.566658,0,0,0.566658,1459.928209,810.876595)">
            <path d="M872.247,871.746C872.485,872.011 876.272,876.22 872.293,876.204C872.269,876.204 870.213,877.045 868.451,876.684C864.27,875.826 871.803,871.973 872.247,871.746Z" style="fill:rgb(179,139,103);"/>
        </g>
        <g transform="matrix(0.566658,0,0,0.566658,1459.928209,810.876595)">
            <path d="M813.423,935.499C814.027,940.841 814.264,940.818 813.958,942.828C813.713,942.758 813.558,943.308 813.313,943.238C812.77,943.084 809.871,940.702 809.584,940.466C809.756,940.334 811.729,938.82 811.719,938.795C811.454,938.145 810.633,937.83 810.369,937.18C811.504,936.505 813.176,935.628 813.423,935.499Z" style="fill:rgb(221,186,150);"/>
        </g>
        <g transform="matrix(0.566658,0,0,0.566658,1459.928209,810.876595)">
            <path d="M806.508,952.572C809.316,952.524 814.969,951.305 813.219,954.332C812.14,956.199 812.115,956.134 810.494,957.482C810.208,957.065 808.334,954.341 806.508,952.572Z" style="fill:rgb(231,195,156);"/>
        </g>
        <g transform="matrix(0.566658,0,0,0.566658,1459.928209,810.876595)">
            <path d="M822.56,952.877C823.968,953.844 823.883,953.837 825.334,954.793C825.694,955.031 826.022,955.315 826.382,955.553C825.131,957.926 825.173,958.267 822,958.667C821.947,958.334 821.336,954.509 821.336,954.509C821.006,952.289 822.43,952.935 822.56,952.877Z" style="fill:rgb(232,198,160);"/>
        </g>
        <g transform="matrix(0.566658,0,0,0.566658,1459.928209,810.876595)">
            <path d="M938.59,896.547C938.39,896.841 934.804,902.107 934.585,898.489C934.516,897.348 939.117,889.445 939.571,893.485C939.636,894.065 938.69,896.31 938.59,896.547Z" style="fill:rgb(126,94,53);"/>
        </g>
        <g transform="matrix(0.566658,0,0,0.566658,1459.928209,810.876595)">
            <path d="M866.483,905.432C861.664,906.091 864.134,903.34 864.364,903.264C870.53,901.213 870.54,903.01 870.508,903.5C870.426,904.764 869.859,904.325 866.483,905.432Z" style="fill:rgb(141,109,64);"/>
        </g>
        <g transform="matrix(0.566658,0,0,0.566658,1459.928209,810.876595)">
            <path d="M857.357,922.482C856.53,927.283 854.81,925.688 854.629,925.423C853.811,924.225 855.114,918.069 856.388,918.734C857.324,919.223 857.354,922.172 857.357,922.482Z" style="fill:rgb(148,116,75);"/>
        </g>
        <g transform="matrix(0.566658,0,0,0.566658,1459.928209,810.876595)">
            <path d="M886.508,868.503C890.675,859.673 889.256,872.382 887.618,872.72C884.635,873.337 885.922,871.453 886.508,868.503Z" style="fill:rgb(143,115,68);"/>
        </g>
        <g transform="matrix(0.566658,0,0,0.566658,1459.928209,810.876595)">
            <path d="M827.44,949.176C827.698,949.54 828.883,949.122 829.042,951.441C829.042,951.441 828.631,953.621 828.595,953.811C824.988,952.332 825.316,951.867 823.674,950.6C824.93,950.125 826.185,949.65 827.44,949.176Z" style="fill:rgb(229,194,157);"/>
        </g>
        <g transform="matrix(0.566658,0,0,0.566658,1459.928209,810.876595)">
            <path d="M874.571,946.613C882.466,946.1 881.013,949.233 880.59,949.563C879.458,950.447 876.907,949.377 876.612,949.254C873.233,947.837 874.584,946.708 874.571,946.613Z" style="fill:rgb(150,120,79);"/>
        </g>
        <g transform="matrix(0.566658,0,0,0.566658,1459.928209,810.876595)">
            <path d="M896.38,858.277C896.138,858.467 891.331,862.254 892.541,858.514C893.432,855.761 900.428,854.111 898.172,857.19C898.116,857.266 896.525,858.193 896.38,858.277Z" style="fill:rgb(151,122,79);"/>
        </g>
        <g transform="matrix(0.566658,0,0,0.566658,1459.928209,810.876595)">
            <path d="M865.583,941.295C872.37,944.857 864.509,943.793 864.404,943.751C864.156,943.651 861.509,942.584 861.872,941.567C862.67,939.339 863.396,940.598 865.583,941.295Z" style="fill:rgb(150,119,75);"/>
        </g>
        <g transform="matrix(0.566658,0,0,0.566658,1459.928209,810.876595)">
            <path d="M925.157,940.485C926.154,940.987 927.151,941.488 928.148,941.989C932.782,945.839 927.123,944.833 926.549,944.408C925.537,943.662 925.587,943.728 924.386,943.326C924.522,941.799 924.543,941.874 925.157,940.485Z" style="fill:rgb(138,110,82);"/>
        </g>
        <g transform="matrix(0.566658,0,0,0.566658,1459.928209,810.876595)">
            <path d="M826.382,955.553C827.087,956.19 827.792,956.827 828.497,957.464C825.395,960.33 825.336,961.528 822.145,960.622L822,958.667C825.173,958.267 825.131,957.926 826.382,955.553Z" style="fill:rgb(179,142,103);"/>
        </g>
        <g transform="matrix(0.566658,0,0,0.566658,1459.928209,810.876595)">
            <path d="M891.488,948.852C898.409,949.213 891.709,951.475 891.498,951.484C887.133,951.662 887.081,949.463 888.62,948.887C888.835,948.807 888.833,948.884 891.488,948.852Z" style="fill:rgb(149,118,74);"/>
        </g>
        <g transform="matrix(0.566658,0,0,0.566658,1459.928209,810.876595)">
            <path d="M816.426,953.651C817.682,958 817.697,957.966 817.786,958.483C817.045,958.761 816.305,959.04 815.564,959.318C814.806,959.062 814.048,958.805 813.29,958.548C814.797,955.963 814.598,955.933 816.426,953.651Z" style="fill:rgb(229,191,152);"/>
        </g>
        <g transform="matrix(0.566658,0,0,0.566658,1459.928209,810.876595)">
            <path d="M882.203,899.149C881.911,899.35 875.282,903.92 877.798,899.624C878.822,897.877 886.258,893.178 882.203,899.149Z" style="fill:rgb(137,108,66);"/>
        </g>
        <g transform="matrix(0.566658,0,0,0.566658,1459.928209,810.876595)">
            <path d="M918.501,909.501C920.326,908.365 920.29,908.312 920.472,908.274C925.08,907.301 919.308,912.791 918.4,913.153C918.129,913.262 915.182,913.13 918.501,909.501Z" style="fill:rgb(149,119,75);"/>
        </g>
        <g transform="matrix(0.566658,0,0,0.566658,1459.928209,810.876595)">
            <path d="M853.517,908.524C855.115,907.347 855.257,907.31 855.434,907.264C858.51,906.468 857.29,909.302 854.37,911.333C854.177,911.467 849.221,912.26 853.517,908.524Z" style="fill:rgb(137,105,60);"/>
        </g>
        <g transform="matrix(0.566658,0,0,0.566658,1459.928209,810.876595)">
            <path d="M903.482,947.476C898.557,949.414 901.396,945.703 901.555,945.555C901.823,945.306 906.04,941.388 905.981,944.442C905.975,944.756 905.965,945.279 903.482,947.476Z" style="fill:rgb(144,111,70);"/>
        </g>
        <g transform="matrix(0.566658,0,0,0.566658,1459.928209,810.876595)">
            <path d="M961.224,927.807C962.946,928.562 962.891,928.48 964.495,929.54C963.651,930.607 963.619,930.481 962.957,931.747C962.029,933.521 961.643,933.519 960.162,932.687C960.237,932.295 960.764,929.561 961.224,927.807Z" style="fill:rgb(150,119,92);"/>
        </g>
        <g transform="matrix(0.566658,0,0,0.566658,1459.928209,810.876595)">
            <path d="M909.398,934.456C910.394,932.582 910.355,932.601 910.447,932.445C911.886,930.021 913.594,933.02 911.024,937.024C910.892,937.228 908.106,938.822 909.398,934.456Z" style="fill:rgb(156,129,89);"/>
        </g>
        <g transform="matrix(0.566658,0,0,0.566658,1459.928209,810.876595)">
            <path d="M834.343,923.351C834.532,923.173 836.623,921.203 837.469,922.517C838.141,923.56 834.871,926.827 834.327,927.087C834.058,927.216 831.958,927.193 834.343,923.351Z" style="fill:rgb(138,109,65);"/>
        </g>
        <g transform="matrix(0.566658,0,0,0.566658,1459.928209,810.876595)">
            <path d="M844.699,917.815C838.141,921.595 843.295,915.577 843.476,915.466C846.27,913.744 847.331,915.638 845.944,916.839C845.31,917.388 845.348,917.306 844.699,917.815Z" style="fill:rgb(149,121,81);"/>
        </g>
        <g transform="matrix(0.566658,0,0,0.566658,1459.928209,810.876595)">
            <path d="M912.081,922.474C912.262,921.827 912.504,918.935 914.594,919.299C916.7,919.665 913.154,929.63 912.081,922.474Z" style="fill:rgb(154,122,80);"/>
        </g>
        <g transform="matrix(0.566658,0,0,0.566658,1459.928209,810.876595)">
            <path d="M805.408,952.813L806.508,952.572C808.334,954.341 810.208,957.065 810.494,957.482C810.218,958.151 809.941,958.82 809.664,959.49C807.425,956.758 806.206,955.369 805.408,952.813Z" style="fill:rgb(167,132,94);"/>
        </g>
        <g transform="matrix(0.566658,0,0,0.566658,1459.928209,810.876595)">
            <path d="M973.547,965.369C973.208,965.237 968.042,963.228 970.68,961.837C971.623,961.339 973.43,962.094 973.651,962.186C975.543,962.976 974.631,963.565 973.547,965.369Z" style="fill:rgb(114,94,65);"/>
        </g>
        <g transform="matrix(0.566658,0,0,0.566658,1459.928209,810.876595)">
            <path d="M830.425,948.335C831.374,950.835 831.221,950.807 830.999,953.442C830.198,953.565 829.396,953.688 828.595,953.811C828.631,953.621 829.042,951.441 829.042,951.441C828.883,949.122 827.698,949.54 827.44,949.176C828.435,948.896 829.43,948.615 830.425,948.335Z" style="fill:rgb(185,149,112);"/>
        </g>
        <g transform="matrix(0.566658,0,0,0.566658,1459.928209,810.876595)">
            <path d="M825.461,940.43C826.705,941.797 826.679,941.755 827.461,943.456C827.176,943.568 821.783,945.683 823.716,942.628C823.836,942.438 823.868,942.536 825.461,940.43Z" style="fill:rgb(222,188,150);"/>
        </g>
        <g transform="matrix(0.566658,0,0,0.566658,1459.928209,810.876595)">
            <path d="M930.651,903.731C926.718,906.228 927.632,902.946 927.805,902.78C931.7,899.067 931.852,902.297 931.794,902.611C931.77,902.737 931.709,902.694 930.651,903.731Z" style="fill:rgb(157,130,86);"/>
        </g>
        <g transform="matrix(0.566658,0,0,0.566658,1459.928209,810.876595)">
            <path d="M853.354,935.549C853.564,929.22 856.098,935.107 856.31,936.497C856.347,936.743 855.533,939.289 853.354,935.549Z" style="fill:rgb(154,126,84);"/>
        </g>
        <g transform="matrix(0.566658,0,0,0.566658,1459.928209,810.876595)">
            <path d="M827.241,938.523C828.708,940.789 828.669,940.736 829.679,943.173C828.94,943.267 828.201,943.362 827.461,943.456C826.679,941.755 826.705,941.797 825.461,940.43C826.295,939.362 826.304,939.443 827.241,938.523Z" style="fill:rgb(170,136,97);"/>
        </g>
        <g transform="matrix(0.566658,0,0,0.566658,1459.928209,810.876595)">
            <path d="M909.289,855.002C909.026,855.041 904.668,855.683 906.368,853.407C906.637,853.048 914.698,850.382 909.289,855.002Z" style="fill:rgb(153,122,84);"/>
        </g>
        <g transform="matrix(0.566658,0,0,0.566658,1459.928209,810.876595)">
            <path d="M940.894,884.363C939.86,889.949 937.947,885.687 937.875,885.441C937.1,882.779 938.931,882.351 940.894,884.363Z" style="fill:rgb(128,101,56);"/>
        </g>
        <g transform="matrix(0.566658,0,0,0.566658,1459.928209,810.876595)">
            <path d="M847.42,905.582C844.745,901.949 849.123,903.438 849.395,903.65C849.569,903.786 852.581,908.173 847.42,905.582Z" style="fill:rgb(144,113,67);"/>
        </g>
        <g transform="matrix(0.566658,0,0,0.566658,1459.928209,810.876595)">
            <path d="M813.29,958.548C814.048,958.805 814.806,959.062 815.564,959.318C815.882,960.122 816.352,959.631 816.646,960.373C816.685,960.472 816.974,961.203 816.505,961.696C816.331,961.879 816.289,961.764 812.664,960.902C812.872,960.118 813.081,959.333 813.29,958.548Z" style="fill:rgb(158,121,82);"/>
        </g>
        <g transform="matrix(0.566658,0,0,0.566658,1459.928209,810.876595)">
            <path d="M935.685,872.392C935.961,872.56 940.646,875.402 937.678,875.911C937.436,875.953 937.466,875.837 934.79,874.896C935.016,874.343 934.737,874.354 934.962,873.805C935.01,873.687 935.016,873.7 935.685,872.392Z" style="fill:rgb(170,142,102);"/>
        </g>
        <g transform="matrix(0.566658,0,0,0.566658,1459.928209,810.876595)">
            <path d="M810.369,937.18C810.633,937.83 811.454,938.145 811.719,938.795C811.729,938.82 809.756,940.334 809.584,940.466C808.592,939.232 808.634,939.196 808.512,939.133C808.195,938.966 807.776,939.518 807.459,939.351C810.156,937.234 810.143,937.362 810.369,937.18Z" style="fill:rgb(189,157,119);"/>
        </g>
        <g transform="matrix(0.566658,0,0,0.566658,1459.928209,810.876595)">
            <path d="M806.474,939.418L805.7,940.476C805.652,940.019 804.774,939.957 804.726,939.5C804.6,938.306 805.309,939.473 806.474,939.418Z" style="fill:rgb(184,155,113);"/>
        </g>
        <g transform="matrix(0.566658,0,0,0.566658,1459.928209,810.876595)">
            <path d="M956.585,949.564C956.173,949.962 956.526,950.819 956.113,951.216C955.922,951.4 955.163,949.66 955.498,949.338C955.764,949.081 956.319,949.821 956.585,949.564Z" style="fill:rgb(147,90,75);"/>
        </g>
        <g transform="matrix(0.566658,0,0,0.566658,1459.928209,810.876595)">
            <path d="M952.26,947.506C952.284,948.2 952.307,948.895 952.33,949.59C951.695,948.623 951.918,948.625 952.26,947.506Z" style="fill:rgb(179,139,124);"/>
        </g>
    </g>
    <g transform="matrix(0.134511,0.329914,-0.329914,0.134511,229.431289,-272.041265)">
        <path d="M857.478,446.425C860.736,447.033 878.144,454.241 898.557,448.721C901.291,447.981 903.247,447.109 903.364,447.068C905.163,446.431 905.118,447.375 905.538,447.449C918.264,471.068 914.578,505.398 914.035,510.455C912.492,524.829 906.878,543.296 903.465,544.388C903.053,544.52 892.72,546.483 892.502,546.491C888.998,546.623 892.89,530.971 886.705,517.405C881.204,505.339 872.989,520.089 872.688,536.507C872.556,543.72 873.898,544.477 871.319,546.105C862.343,545.912 859.616,544.665 858.687,544.24C849.296,526.538 843.433,495.122 850.97,466.609C853.52,456.963 855.064,453.882 857.478,446.425Z" style="fill:rgb(222,231,229);"/>
        <path d="M909.915,442.364C923.583,468.1 921.437,498.526 921.087,503.484C920.986,504.91 921.238,504.809 921.738,506.173C921.156,507.029 920.521,506.609 920.233,508.384C919.81,510.991 918.781,511.376 920.749,513.172C938.125,529.027 929.695,557.955 927.458,559.185C925.207,560.422 913.988,541.608 910.21,544.102C907.921,545.612 908.81,546.67 911.414,547.5L910.267,548.874C909.732,549.079 909.41,548.282 907.972,549.753C906.539,551.219 908.58,555.241 902.998,561.8C902.666,561.644 899.446,560.126 898.448,561.196C897.779,561.913 898.229,562.11 897.519,562.893C897.114,563.338 896.921,562.88 896.537,563.302C894.691,563.256 889.636,562.434 888.847,564.612C886.588,570.855 888.11,572.395 883.622,573.835C877.45,575.815 874.262,564.459 872.629,564.199C872.38,564.159 872.397,564.178 869.492,563.926C871.47,562.606 871.499,562.66 871.628,562.5C872.865,560.973 873.251,561.603 873.341,561.47C873.564,561.137 873.696,560.942 872.561,556.519C872.571,554.038 872.752,554.087 872.039,551.699C873.026,548.719 872.631,547.81 872.497,547.5C872.254,546.942 871.561,546.663 871.319,546.105C873.898,544.477 872.556,543.72 872.688,536.507C872.989,520.089 881.204,505.339 886.705,517.405C892.89,530.971 888.998,546.623 892.502,546.491C892.72,546.483 903.053,544.52 903.465,544.388C906.878,543.296 912.492,524.829 914.035,510.455C914.578,505.398 918.264,471.068 905.538,447.449C907.585,444.766 908.196,445.329 909.915,442.364Z" style="fill:rgb(155,84,76);"/>
        <path d="M853.198,442.407C854.846,444.956 855.047,444.664 857.478,446.425C855.064,453.882 853.52,456.963 850.97,466.609C843.433,495.122 849.296,526.538 858.687,544.24C856.633,547.44 856.076,547.136 855.134,550.771C852.858,550.193 851.703,551.083 846.788,556.738C842.654,561.495 835.355,577.648 828.948,559.346C823.549,543.922 823.506,520.769 840.488,506.482C844.95,498.018 834.456,482.022 853.198,442.407Z" style="fill:rgb(165,80,70);"/>
        <path d="M853.198,442.407C854.398,439.416 861.115,422.669 876.643,409.66C882.938,404.385 888.394,407.92 900.013,423.851C904.983,430.664 909.263,440.817 909.915,442.364C908.196,445.329 907.585,444.766 905.538,447.449C905.118,447.375 905.163,446.431 903.364,447.068C903.247,447.109 901.291,447.981 898.557,448.721C878.144,454.241 860.736,447.033 857.478,446.425C855.047,444.664 854.846,444.956 853.198,442.407Z" style="fill:rgb(141,47,41);"/>
        <path d="M879.521,459.64C907.111,457.921 909.308,491.789 892.267,500.039C864.076,513.688 844.435,467.956 879.521,459.64Z" style="fill:rgb(130,112,106);"/>
        <path d="M858.687,544.24C859.616,544.665 862.343,545.912 871.319,546.105C871.561,546.663 872.254,546.942 872.497,547.5C872.631,547.81 873.026,548.719 872.039,551.699C868.961,551.385 858.714,549.195 861.696,553.398C865.067,558.151 870.521,556.868 870.736,556.929C871.899,557.26 871.765,556.698 872.561,556.519C873.696,560.942 873.564,561.137 873.341,561.47C873.251,561.603 872.865,560.973 871.628,562.5C871.499,562.66 871.47,562.606 869.492,563.926C868.5,563.833 867.508,563.741 866.517,563.648C866.164,563.904 865.811,564.161 865.459,564.417C865.42,565.114 865.381,565.811 865.342,566.508C865.041,568.544 861.932,589.584 864.879,592.23C866.246,593.458 865.875,594.906 867.5,593.955C868.142,593.58 868.269,592.604 868.911,592.229C869.15,592.692 872.509,600.531 880.952,612.022C884.152,616.378 893.316,592.435 894.961,590.975C895.355,590.626 895.271,591.312 897.525,591.652C897.836,591.589 898.147,591.526 898.457,591.462C899.156,589.398 903.689,576.015 898.675,564.219C899.945,564.356 900.563,565.708 900.542,564.42C900.542,564.42 898.663,563.575 898.5,563.502C897.845,563.435 897.191,563.369 896.537,563.302C896.921,562.88 897.114,563.338 897.519,562.893C898.229,562.11 897.779,561.913 898.448,561.196C899.446,560.126 902.666,561.644 902.998,561.8C904.063,564.359 912.427,584.448 903.422,596.442C900.441,600.414 898.478,598.855 896.951,601.728C890.236,614.366 883.929,630.04 871.828,611.289C866.712,603.361 868.487,601.778 863.62,599.274C857.893,596.328 853.359,582.467 859.601,566.538C859.747,566.164 861.381,561.996 861.221,561.784C860.146,560.359 859.66,560.917 858.598,559.434C858.164,558.827 857.93,558.501 855.134,550.771C856.076,547.136 856.633,547.44 858.687,544.24Z" style="fill:rgb(165,116,77);"/>
        <path d="M864.24,433.348C865.457,431.582 877.595,413.973 882.489,413.706C885.999,413.515 906.277,440.217 901.242,442.056C885.568,447.785 867.406,442.99 864.57,442.241C858.765,440.708 861.292,438.381 864.24,433.348Z" style="fill:rgb(210,78,66);"/>
        <path d="M867.782,486.378C862.263,466.733 883.367,461.131 892.179,469.843C904.269,481.796 891.882,500.573 877.445,495.632C870.869,493.381 871.588,492.259 867.782,486.378Z" style="fill:rgb(115,166,204);"/>
        <path d="M898.675,564.219C903.689,576.015 899.156,589.398 898.457,591.462L897.525,591.652C895.271,591.312 895.355,590.626 894.961,590.975C893.316,592.435 884.152,616.378 880.952,612.022C872.509,600.531 869.15,592.692 868.911,592.229C868.269,592.604 868.142,593.58 867.5,593.955C865.875,594.906 866.246,593.458 864.879,592.23C861.932,589.584 865.041,568.544 865.342,566.508C867.674,566.182 869.122,565.124 869.246,568.544C869.351,571.461 868.424,583.553 880.723,593.227C886.448,597.729 896.046,580.412 896.531,569.503C896.576,568.504 896.562,567.502 896.603,566.502C896.645,565.498 896.642,565.501 896.699,565.438C897.517,564.537 897.874,565.102 898.675,564.219Z" style="fill:rgb(240,139,72);"/>
        <path d="M866.517,563.648C867.508,563.741 868.5,563.833 869.492,563.926C872.397,564.178 872.38,564.159 872.629,564.199C874.262,564.459 877.45,575.815 883.622,573.835C888.11,572.395 886.588,570.855 888.847,564.612C889.636,562.434 894.691,563.256 896.537,563.302C897.191,563.369 897.845,563.435 898.5,563.502L898.675,564.219C897.874,565.102 897.517,564.537 896.699,565.438C896.642,565.501 896.645,565.498 896.603,566.502C896.562,567.502 896.576,568.504 896.531,569.503C896.046,580.412 886.448,597.729 880.723,593.227C868.424,583.553 869.351,571.461 869.246,568.544C869.122,565.124 867.674,566.182 865.342,566.508C865.381,565.811 865.42,565.114 865.459,564.417L866.517,563.648Z" style="fill:rgb(249,187,103);"/>
        <path d="M921.738,506.173C924.999,509.387 947.301,531.362 933.046,562.274C926.263,576.983 921.846,560.878 910.267,548.874L911.414,547.5C908.81,546.67 907.921,545.612 910.21,544.102C913.988,541.608 925.207,560.422 927.458,559.185C929.695,557.955 938.125,529.027 920.749,513.172C918.781,511.376 919.81,510.991 920.233,508.384C920.521,506.609 921.156,507.029 921.738,506.173Z" style="fill:rgb(134,43,38);"/>
        <path d="M880.272,523.401C880.547,522.878 880.511,522.228 880.786,521.705C882.176,519.063 885.167,523.976 885.779,538.492C886.933,565.897 880.968,570.382 879.769,566.297C874.708,549.052 879.135,529.727 880.272,523.401Z" style="fill:rgb(215,78,70);"/>
        <path d="M892.901,550.984C894.731,550.972 894.665,551.055 896.529,550.959C906.751,550.435 899.566,556.012 897.554,556.664C891.566,558.605 890.802,556.655 890.468,556.504C890.773,553.899 890.788,553.992 891.541,551.525L892.901,550.984Z" style="fill:rgb(130,172,194);"/>
        <path d="M872.039,551.699C872.752,554.087 872.571,554.038 872.561,556.519C871.765,556.698 871.899,557.26 870.736,556.929C870.521,556.868 865.067,558.151 861.696,553.398C858.714,549.195 868.961,551.385 872.039,551.699Z" style="fill:rgb(119,159,181);"/>
        <path d="M898.5,563.502C898.663,563.575 900.542,564.42 900.542,564.42C900.563,565.708 899.945,564.356 898.675,564.219L898.5,563.502Z" style="fill:rgb(183,131,82);"/>
    </g>
    <g transform="matrix(0.21761,0.741467,-0.831841,0.244133,121.81327,-391.0047)">
        <path d="M557.664,199.348C534.579,175.505 534.46,175.624 532.65,173.377C523.812,162.406 550.986,152.971 568.111,140.036C571.185,137.714 571.406,139.411 573.593,141.402C585.573,152.314 607.648,141.638 601.692,123.43C600.241,118.995 600.844,118.503 604.795,115.926C633.548,97.173 633.53,97.233 635.165,96.052C652.726,83.365 655.979,89.77 668.981,107.124C685.056,128.579 687.603,128.637 685.508,131.505C675.709,144.919 690.203,157.944 702.542,153.605C706.282,152.29 706.782,152.478 709.074,155.793C718.569,169.523 721.347,169.654 726.142,176.734C732.727,186.457 725.625,188.86 700.788,205.894C694.243,210.383 694.072,213.903 687.284,209.866C685.928,209.06 676.578,203.499 667.567,209.605C654.128,218.712 662.013,231.097 660.146,233.203C659.498,233.934 634.048,251.352 631.766,252.913C617.317,262.802 615.459,257.287 602.761,245.212C598.842,241.485 600.449,240.666 601.521,237.508C605.821,224.843 595.756,207.928 577.304,217.131C574.005,218.776 566.702,209.073 557.664,199.348ZM646.062,115.023C640.43,128.581 661.246,127.758 657.964,116.142C657.622,114.931 652.712,107.027 646.062,115.023ZM695.134,175.111C687.663,173.009 687.368,180.149 688.194,182.057C691.842,190.479 705.266,182.498 695.134,175.111ZM583.301,181.413C596.374,172.963 586.458,160.612 576.17,162.195C560.859,164.551 565.718,186.924 583.301,181.413ZM633.983,203.212C633.346,202.701 626.716,197.388 623.934,204.997C620.646,213.988 640.148,214.656 633.983,203.212ZM629.037,160.957C618.255,174.633 645.817,175.549 646.117,164.076C646.173,161.911 640.552,151.499 629.037,160.957Z" style="fill:rgb(245,202,71);stroke:rgb(170,131,48);stroke-width:4.87px;stroke-linecap:butt;stroke-miterlimit:2;"/>
    </g>
    <g transform="matrix(-0.217368,0.580372,-0.580372,-0.217368,652.575104,-161.039007)">
        <g transform="matrix(1,0,0,1,53.801301,28.813019)">
            <path d="M640.483,732.618C650.573,733.989 646.1,739.971 649.562,741.372C651.476,742.146 651.196,740.775 661.979,723.801C684.518,688.323 698.425,659.993 707.727,653.861C708.587,653.294 725.142,643.254 727.46,643.83C727.712,643.892 729.297,644.286 729.274,646.51C729.056,668.033 725.276,673.807 723.972,675.8C695.357,719.515 669.662,752.357 670.033,754.62C670.497,757.451 682.818,753.593 682.748,763.497C682.704,769.737 671.315,771.285 663.733,767.077C660.63,765.355 659.898,763.773 657.837,766.734C645.923,783.848 645.492,783.701 645.49,785.498C645.462,804.966 618.052,793.789 627.484,780.487C629.536,777.593 632.398,778.368 634.08,775.3C644.333,756.6 647.377,756.7 645.321,754.673C643.481,752.859 641.293,752.138 638.628,748.362C634.011,741.553 632.565,738.673 640.483,732.618Z" style="fill:rgb(91,92,101);"/>
        </g>
        <g transform="matrix(1,0,0,1,53.801301,28.813019)">
            <path d="M722.386,649.242C726.505,646.756 725.887,651.042 724.65,662.509C723.588,672.359 722.732,672.336 700.805,703.72C670.124,747.633 668.621,752.373 667.717,748.406C666.011,740.916 669.145,737.657 675.521,727.514C702.48,684.623 703.669,685.407 705.785,681.546C706.581,680.093 706.604,675.312 704.404,679.349C701.8,684.127 700.171,683.039 667.099,736.239C664.07,741.112 662.874,739.534 657.552,741.754C651.152,744.425 656.614,739.044 660.115,733.275C663.353,727.939 695.546,674.883 700.86,666.742C708.876,654.458 711.316,657.073 722.386,649.242Z" style="fill:rgb(189,210,222);"/>
        </g>
        <g transform="matrix(1,0,0,1,53.801301,28.813019)">
            <path d="M638.713,742.393C638.533,741.75 637.246,739.417 639.57,737.622C644.855,733.541 642.97,740.445 651.745,748.184C654.711,750.8 657.757,747.528 659.66,750.434C662.653,755.004 663.1,754.489 667.4,757.693C671.005,760.379 676.975,758.79 678.155,760.738C680.711,764.959 670.235,764.616 669.476,764.591C664.302,764.422 646.301,754.843 638.713,742.393Z" style="fill:rgb(129,142,161);"/>
        </g>
        <g transform="matrix(1,0,0,1,53.801301,28.813019)">
            <path d="M629.201,784.45C629.322,784.116 630.303,781.404 631.659,780.753C633.858,779.696 641.54,785.269 641.593,785.414C644.4,793.078 628.368,796.988 629.201,784.45Z" style="fill:rgb(135,160,167);"/>
        </g>
        <g transform="matrix(1,0,0,1,53.801301,28.813019)">
            <path d="M654.609,744.573C658.602,743.968 658.533,744.051 662.442,743.285C664.019,742.976 664.439,742.899 664.618,744.484C665.37,751.13 665.705,751.084 665.676,751.664C665.474,755.714 664.048,751.498 661.089,747.797C658.447,744.493 656.033,749.051 653.602,745.512L654.609,744.573Z" style="fill:rgb(137,148,161);"/>
        </g>
        <g transform="matrix(1,0,0,1,53.801301,28.813019)">
            <path d="M654.559,765.533C649.379,771.229 643.592,767.667 644.256,765.44C645.515,761.21 647.104,763.634 651.538,764.143C653.258,764.341 653.113,764.548 654.559,765.533Z" style="fill:rgb(142,116,109);"/>
        </g>
        <g transform="matrix(1,0,0,1,53.801301,28.813019)">
            <path d="M638.668,773.558C641.089,771.045 641.053,770.664 644.535,770.664C644.961,770.664 650.701,770.664 649.534,772.52C649.282,772.921 648.214,776.678 638.668,773.558Z" style="fill:rgb(124,95,88);"/>
        </g>
        <g transform="matrix(1,0,0,1,53.801301,28.813019)">
            <path d="M637.88,775.978C639.472,776.394 642.019,776.819 642.381,776.88C648.906,777.968 643.739,781.065 642.583,780.827C638.08,779.904 635.454,779.866 637.88,775.978Z" style="fill:rgb(130,105,100);"/>
        </g>
    </g>
    <g transform="matrix(1.214923,0,0,1.214923,-2034.185653,-1687.773005)">
        <g transform="matrix(1.024265,0,0,0.908992,1305.147014,657.649948)">
            <path d="M438.991,866.354C437.528,863.175 436.885,863.814 434.308,862.814C431.386,861.68 437.018,855.956 445.5,855.737C450.019,855.62 449.681,866.059 452.003,863.123C453.147,861.677 453.614,858.812 455.94,862.195C456.823,863.477 457.139,862.731 459.488,862.341C461.814,861.956 460.899,863.293 461.34,865.55C461.42,865.959 461.814,867.291 466.398,864.347C472.176,860.637 476.758,871.962 476.844,875.501C476.966,880.555 472.072,873.895 467.837,876.931C464.856,879.069 464.548,876.169 461.569,876.812C457.451,877.702 457.202,876.395 453.406,878.334C449.968,880.091 450.504,875.352 448.236,873.95C445.015,871.96 446.166,870.369 442.53,869.369C440.107,868.703 439.869,868.765 438.991,866.354Z" style="fill:rgb(74,74,83);"/>
        </g>
        <g transform="matrix(1.024265,0,0,0.908992,1305.147014,657.649948)">
            <path d="M446.332,859.845C446.932,866.002 450.385,867.065 452.518,865.967C452.891,865.775 455.123,864.628 457.765,866C458.876,866.578 458.117,872.05 465.471,868.412C466.984,867.664 468.319,865.678 469.788,867.24C470.12,867.593 475.042,872.825 471.706,872.981C467.445,873.18 467.517,874.912 463.425,873.74C459.957,872.747 454.668,876.718 451.302,872.856C450.961,872.465 450.721,872.735 446.532,868.463C444.534,866.426 442.382,866.627 442.336,866.567C440.735,864.48 441.684,863.93 439.841,862.119C437.592,859.909 439.561,859.495 442.656,858.916C445.418,858.4 445.273,859.146 446.332,859.845Z" style="fill:rgb(97,94,110);"/>
        </g>
    </g>
    <g transform="matrix(1,0,0,1,-1668.093944,-1485.215384)">
        <g transform="matrix(1,0,0,1,-339.742785,239.840558)">
            <path d="M2226.239,1467.882C2221.497,1486.074 2144.948,1474.82 2127.422,1470.48C2085.064,1459.99 2034.633,1453.896 2016.477,1433.53C2008.221,1424.27 2016.523,1392.49 2016.523,1392.49C2016.523,1392.49 2020.86,1366.086 2053.684,1343.78C2101.489,1311.293 2192.676,1339.945 2199.46,1414.077C2201.973,1441.53 2205.661,1456.361 2215.451,1462.574" style="fill:rgb(213,163,102);stroke:rgb(125,82,33);stroke-width:2.92px;"/>
        </g>
        <g transform="matrix(1,0,0,1,-336.556848,243.779989)">
            <path d="M2154.274,1464.33C2110.984,1461.826 2038.323,1450.206 2020.167,1429.841C2011.911,1420.58 2016.523,1392.49 2016.523,1392.49C2016.523,1392.49 2020.86,1366.086 2053.684,1343.78C2101.489,1311.293 2175.983,1346.098 2186.341,1419.817C2190.084,1446.45 2187.816,1466.27 2154.274,1464.33Z" style="fill:rgb(234,195,130);"/>
        </g>
        <g transform="matrix(1,0,0,1,6.428225,0)">
            <g transform="matrix(1,0,0,1,8.407473,121.108544)">
                <path d="M1710.413,1493.368C1708.837,1494.156 1711.407,1494.998 1711.988,1494.417C1712.788,1493.617 1712.479,1493.529 1712.381,1492.45" style="fill:none;stroke:rgb(243,219,152);stroke-opacity:0.44;stroke-width:2.92px;"/>
            </g>
            <g transform="matrix(1,0,0,1,8.407473,121.108544)">
                <path d="M1722.483,1477.232C1722.542,1477.446 1724.045,1482.854 1724.451,1479.2C1724.682,1477.115 1723.382,1477.28 1722.483,1477.1" style="fill:none;stroke:rgb(243,219,152);stroke-opacity:0.44;stroke-width:2.92px;"/>
            </g>
            <g transform="matrix(1,0,0,1,8.407473,121.108544)">
                <path d="M1738.357,1470.935C1737.323,1471.451 1737.216,1471.317 1737.176,1471.722C1737.167,1471.806 1736.8,1475.483 1738.094,1472.247" style="fill:none;stroke:rgb(243,219,152);stroke-opacity:0.44;stroke-width:2.92px;"/>
            </g>
            <g transform="matrix(1,0,0,1,8.407473,121.108544)">
                <path d="M1756.854,1477.888C1749.936,1474.428 1756.583,1479.893 1756.723,1479.987C1757.719,1480.651 1757.289,1479.696 1757.51,1478.15" style="fill:none;stroke:rgb(243,219,152);stroke-opacity:0.44;stroke-width:2.92px;"/>
            </g>
            <g transform="matrix(1,0,0,1,8.407473,121.108544)">
                <path d="M1736.651,1489.826C1736.708,1490.112 1738.175,1492.237 1739.8,1490.613C1741.248,1489.165 1740.043,1488.876 1737.963,1488.645" style="fill:none;stroke:rgb(243,219,152);stroke-opacity:0.44;stroke-width:2.92px;"/>
            </g>
            <g transform="matrix(1,0,0,1,8.407473,121.108544)">
                <path d="M1764.463,1494.811C1764.849,1495.435 1765.235,1496.058 1765.621,1496.682C1765.732,1495.24 1765.841,1495.272 1765.644,1494.68" style="fill:none;stroke:rgb(243,219,152);stroke-opacity:0.44;stroke-width:2.92px;"/>
            </g>
            <g transform="matrix(1,0,0,1,8.407473,121.108544)">
                <path d="M1786.634,1487.858C1786.47,1488.116 1785.88,1487.6 1785.716,1487.858C1783.879,1490.744 1787.651,1488.858 1787.815,1488.776" style="fill:none;stroke:rgb(243,219,152);stroke-opacity:0.44;stroke-width:2.92px;"/>
            </g>
            <g transform="matrix(1,0,0,1,8.407473,121.108544)">
                <path d="M1773.121,1470.279C1771.904,1470.887 1771.606,1470.719 1771.81,1471.328C1771.856,1471.467 1771.886,1471.218 1771.81,1471.066" style="fill:none;stroke:rgb(243,219,152);stroke-opacity:0.44;stroke-width:2.92px;"/>
            </g>
            <g transform="matrix(1,0,0,1,8.407473,121.108544)">
                <path d="M1690.735,1505.962C1689.134,1504.36 1690.443,1506.451 1690.473,1506.487C1691.09,1507.227 1691.249,1504.203 1691.26,1503.994" style="fill:none;stroke:rgb(243,219,152);stroke-opacity:0.44;stroke-width:2.92px;"/>
            </g>
        </g>
    </g>
    <g transform="matrix(1.004883,0,0,1.004883,-2.496918,-23.739276)">
        <path d="M125.625,187.84C133.761,186.569 133.95,193.974 132.972,196.686C129.463,206.421 112.437,194.61 125.625,187.84Z" style="fill:rgb(108,62,35);"/>
    </g>
    <g transform="matrix(1.004883,0,0,1.004883,-2.496918,-23.739276)">
        <path d="M70.5,189.185C56.882,186.68 68.832,170.669 75.322,179.611C76.277,180.926 76.78,183.603 76.079,185.346C74.476,189.333 70.707,189.148 70.5,189.185Z" style="fill:rgb(114,67,39);"/>
    </g>
    <g transform="matrix(1.004883,0,0,1.004883,-2.496918,-23.739276)">
        <path d="M95.39,195.801C94.796,195.459 89.97,192.678 89.584,189.492C88.9,183.851 93.494,190.055 93.693,190.325C98.757,197.164 105.45,190.336 106.51,190.325C109.157,190.297 106.967,198.835 95.39,195.801Z" style="fill:rgb(97,53,13);"/>
    </g>
</svg>
