<?xml version="1.0" encoding="UTF-8" standalone="no"?><!DOCTYPE svg PUBLIC "-//W3C//DTD SVG 1.1//EN" "http://www.w3.org/Graphics/SVG/1.1/DTD/svg11.dtd"><svg width="100%" height="100%" viewBox="0 0 67 37" version="1.1" xmlns="http://www.w3.org/2000/svg" xmlns:xlink="http://www.w3.org/1999/xlink" xml:space="preserve" xmlns:serif="http://www.serif.com/" style="fill-rule:evenodd;clip-rule:evenodd;stroke-linejoin:round;stroke-miterlimit:2;"><g><path d="M13.829,36.664c-7.754,0.005 -7.766,0.029 -8.885,-0.251c-0.24,-0.06 -1.958,-0.489 -2.799,-1.309c-3.533,-3.448 -1.856,-7.411 -0.896,-11.226c2.785,-11.074 15.065,-25.638 34.657,-23.704c8.995,0.888 5.624,11.681 5.951,19.899c0.125,3.156 2.38,-0.934 3.26,-1.841c2.853,-2.936 4.791,2.893 6.157,3.189c0.931,0.202 0.323,-4.347 0.478,-14.311c0.028,-1.777 1.367,-0.65 2.297,0.117c8.047,6.638 10.19,14.324 10.785,16.237c2.537,8.154 0.869,9.758 -0.231,11.158c-0.732,0.932 -3.109,2.015 -4.695,2.038c-0.283,0.004 -36.744,0.008 -46.08,0.003Zm-6.72,-1.452l42.72,0.007c11.081,-0.016 11.584,0.149 12.911,-0.818c0.404,-0.294 2.784,-2.029 1.97,-5.931c-1.739,-8.336 -4.168,-11.506 -5.118,-13.156c-0.903,-1.568 -5.701,-7.158 -6.433,-6.826c-0.582,0.264 0.406,12.221 -0.538,13.691c-1.53,2.384 -4.704,-2.656 -5.465,-3.267c-1.369,-1.1 -3.311,5.224 -5.753,3.59c-2.234,-1.495 0.98,-15.424 -1.753,-19.156c-2.43,-3.318 -12.281,-1.734 -13.089,-1.469c-1.148,0.376 -12.842,2.031 -20.547,14.416c-4.145,6.663 -4.894,14.234 -4.626,15.047c1.459,4.419 5.169,3.853 5.721,3.873Z" style="fill:#0a0a0a;"/></g></svg>